<svg xmlns="http://www.w3.org/2000/svg" viewBox="0 0 1200 630" width="1200" height="630">
  <defs>
    <pattern id="grid" width="40" height="40" patternUnits="userSpaceOnUse">
      <path d="M40 0H0V40" fill="none" stroke="rgba(92,86,80,0.08)" stroke-width="1"/>
    </pattern>
  </defs>
  <rect width="1200" height="630" fill="#FAF9F6"/>
  <rect width="1200" height="630" fill="url(#grid)"/>
  <g font-family="'Noto Serif TC', Georgia, serif">
    <rect x="80" y="90" width="360" height="52" rx="10" fill="none" stroke="#B63426" stroke-width="3" transform="rotate(-2 260 116)"/>
    <text x="100" y="126" font-size="26" font-weight="700" fill="#B63426" transform="rotate(-2 260 116)">資料最後查核：2026-07-11</text>
    <text x="80" y="270" font-size="82" font-weight="900" fill="#1C1A19">第一次去大陸旅遊</text>
    <text x="80" y="370" font-size="82" font-weight="900" fill="#1C1A19">臺灣人的一頁式生存聖經</text>
  </g>
  <g font-family="'Noto Sans TC', sans-serif">
    <text x="80" y="450" font-size="34" fill="#5C5650">證件・網路・支付・住宿・交通，一頁準備到能出發</text>
  </g>
  <g font-family="'Noto Sans TC', sans-serif" font-size="26" font-weight="700">
    <rect x="80" y="500" width="150" height="56" rx="12" fill="#B63426"/>
    <text x="110" y="537" fill="#FFFFFF">台胞證</text>
    <rect x="248" y="500" width="120" height="56" rx="12" fill="#2C6A4F"/>
    <text x="272" y="537" fill="#FFFFFF">網路</text>
    <rect x="386" y="500" width="120" height="56" rx="12" fill="#E0A96D"/>
    <text x="410" y="537" fill="#1C1A19">支付</text>
    <rect x="524" y="500" width="120" height="56" rx="12" fill="#F0EDE5"/>
    <text x="548" y="537" fill="#1C1A19">住宿</text>
    <rect x="662" y="500" width="120" height="56" rx="12" fill="#F0EDE5"/>
    <text x="686" y="537" fill="#1C1A19">交通</text>
  </g>
</svg>
